<?xml version="1.0" encoding="UTF-8" standalone="no"?>
<!DOCTYPE svg PUBLIC "-//W3C//DTD SVG 1.1//EN" "http://www.w3.org/Graphics/SVG/1.1/DTD/svg11.dtd">
<svg width="100%" height="100%" viewBox="0 0 24 24" version="1.1" xmlns="http://www.w3.org/2000/svg" xmlns:xlink="http://www.w3.org/1999/xlink" xml:space="preserve" xmlns:serif="http://www.serif.com/" style="fill-rule:evenodd;clip-rule:evenodd;stroke-linejoin:round;stroke-miterlimit:2;">
    <g transform="matrix(1,0,0,1,0,-30)">
        <g id="ArrowTop" transform="matrix(0.952003,0,0,1.28299,-0.305588,-6.3938)">
            <rect x="0.321" y="28.366" width="25.21" height="18.706" style="fill:none;"/>
            <g transform="matrix(1.05042,0,0,0.779427,0.320995,4.9835)">
                <path d="M12,33L11.978,33C11.847,33.003 11.722,33.031 11.608,33.08L11.605,33.081C11.514,33.12 11.428,33.173 11.349,33.241L4.349,39.241C3.93,39.6 3.882,40.232 4.241,40.651C4.6,41.07 5.232,41.118 5.651,40.759L11,36.174L11,50C11,50.552 11.448,51 12,51C12.552,51 13,50.552 13,50L13,36.174L18.349,40.759C18.768,41.118 19.4,41.07 19.759,40.651C20.118,40.232 20.07,39.6 19.651,39.241L12.651,33.241C12.572,33.173 12.486,33.12 12.395,33.081L12.392,33.08C12.278,33.031 12.153,33.003 12.022,33L12,33Z"/>
            </g>
        </g>
    </g>
</svg>
