<?xml version="1.0" encoding="UTF-8" standalone="no"?>
<!DOCTYPE svg PUBLIC "-//W3C//DTD SVG 1.1//EN" "http://www.w3.org/Graphics/SVG/1.1/DTD/svg11.dtd">
<svg width="100%" height="100%" viewBox="0 0 24 24" version="1.1" xmlns="http://www.w3.org/2000/svg" xmlns:xlink="http://www.w3.org/1999/xlink" xml:space="preserve" xmlns:serif="http://www.serif.com/" style="fill-rule:evenodd;clip-rule:evenodd;stroke-linejoin:round;stroke-miterlimit:2;">
    <g transform="matrix(1,0,0,1,-30,-30)">
        <g id="ArrowBottom" transform="matrix(0.987671,0,0,1.06811,-0.205048,-2.04331)">
            <rect x="30.582" y="30" width="24.3" height="22.47" style="fill:none;"/>
            <g transform="matrix(1.01248,0,0,0.936233,0.207607,1.91301)">
                <path d="M41,47.826L35.651,43.241C35.232,42.882 34.6,42.93 34.241,43.349C33.882,43.768 33.93,44.4 34.349,44.759L41.349,50.759C41.428,50.827 41.514,50.88 41.605,50.919L41.608,50.92C41.722,50.969 41.847,50.997 41.978,51L42,51L42.022,51C42.153,50.997 42.278,50.969 42.392,50.92L42.395,50.919C42.486,50.88 42.572,50.827 42.651,50.759L49.651,44.759C50.07,44.4 50.118,43.768 49.759,43.349C49.4,42.93 48.768,42.882 48.349,43.241L43,47.826L43,34C43,33.448 42.552,33 42,33C41.448,33 41,33.448 41,34L41,47.826Z"/>
            </g>
        </g>
    </g>
</svg>
