<?xml version="1.0" encoding="UTF-8" standalone="no"?>
<!DOCTYPE svg PUBLIC "-//W3C//DTD SVG 1.1//EN" "http://www.w3.org/Graphics/SVG/1.1/DTD/svg11.dtd">
<svg width="100%" height="100%" viewBox="0 0 24 24" version="1.1" xmlns="http://www.w3.org/2000/svg" xmlns:xlink="http://www.w3.org/1999/xlink" xml:space="preserve" xmlns:serif="http://www.serif.com/" style="fill-rule:evenodd;clip-rule:evenodd;stroke-linejoin:round;stroke-miterlimit:2;">
    <g transform="matrix(1,0,0,1,-30,0)">
        <g id="ArrowRight" transform="matrix(0.898498,0,0,1,1.64827,0)">
            <rect x="31.555" y="0" width="26.711" height="24" style="fill:none;"/>
            <g transform="matrix(1.11297,0,0,1,-1.83447,0)">
                <path d="M36.156,12.979L48.979,12.979C49.531,12.979 49.979,12.531 49.979,11.979C49.979,11.427 49.531,10.979 48.979,10.979L36.192,10.979L40.759,5.651C41.118,5.232 41.07,4.6 40.651,4.241C40.232,3.882 39.6,3.93 39.241,4.349L33.241,11.349C32.92,11.724 32.92,12.276 33.241,12.651L39.241,19.651C39.6,20.07 40.232,20.118 40.651,19.759C41.07,19.4 41.118,18.768 40.759,18.349L36.156,12.979Z"/>
            </g>
        </g>
    </g>
</svg>
